<svg xmlns:xlink="http://www.w3.org/1999/xlink" class="w-16 h-16 mb-4" viewBox="0 0 64 64" xmlns="http://www.w3.org/2000/svg" width="64"  height="64" ><rect class="fill-current text-purple-600" width="64" height="64" rx="32" fill="#5D5DFF"></rect><g transform="translate(21 22)" stroke-linecap="square" stroke-width="2px" fill="none" fill-rule="evenodd"><path class="stroke-current text-purple-300" d="M17 2V0M19.121 2.879l1.415-1.415M20 5h2M19.121 7.121l1.415 1.415M17 8v2M14.879 7.121l-1.415 1.415M14 5h-2M14.879 2.879l-1.415-1.415" stroke="#CBCCFF" fill="none" stroke-width="2px"></path><circle class="stroke-current text-purple-300" cx="17" cy="5" r="3" stroke="#CBCCFF" fill="none" stroke-width="2px"></circle><path class="stroke-current text-purple-100" d="M8.86 1.18C3.8 1.988 0 5.6 0 10c0 5 4.9 9 11 9a10.55 10.55 0 003.1-.4L20 21l-.6-5.2a9.125 9.125 0 001.991-2.948" stroke="#F4F4FF" fill="none" stroke-width="2px"></path></g></svg>